<svg width="36" height="36" viewBox="0 0 36 36" fill="none" xmlns="http://www.w3.org/2000/svg">
<g clip-path="url(#clip0_2403_8775)">
<path fill-rule="evenodd" clip-rule="evenodd" d="M24.6579 4.94514C22.1122 4.30829 19.5664 3.03458 17.6571 1.12402C15.7478 3.03458 13.202 4.30829 10.6562 4.94514C11.2927 10.6768 13.202 14.4979 17.6571 17.6822C22.1122 14.4979 24.6579 10.6768 24.6579 4.94514Z" fill="#FFC727"/>
<path fill-rule="evenodd" clip-rule="evenodd" d="M22.1113 28.6578L4.29102 7.6416V17.8313L18.2927 33.7526L22.1113 28.6578Z" fill="#FBFBFB"/>
<path fill-rule="evenodd" clip-rule="evenodd" d="M24.0215 26.7471L31.6588 17.8311V8.27832L19.5664 22.2891L24.0215 26.7471Z" fill="#FBFBFB"/>
<path fill-rule="evenodd" clip-rule="evenodd" d="M24.6572 29.9314V35.6631L31.6581 27.384V21.6523L24.6572 29.9314Z" fill="#FBFBFB"/>
<path fill-rule="evenodd" clip-rule="evenodd" d="M11.2919 29.9314L4.29102 21.6523V27.384L11.2919 35.6631V29.9314Z" fill="#FBFBFB"/>
</g>
<defs>
<clipPath id="clip0_2403_8775">
<rect width="35.9506" height="35.9739" fill="white"/>
</clipPath>
</defs>
</svg>
