<svg width="18" height="18" viewBox="0 0 18 18" fill="none" xmlns="http://www.w3.org/2000/svg">
  <path fill-rule="evenodd" clip-rule="evenodd" d="M12.5158 2.35193C11.3045 2.04909 10.0932 1.44342 9.18465 0.534912C8.27614 1.44342 7.0648 2.04909 5.85345 2.35193C6.15629 5.07745 7.0648 6.89447 9.18465 8.40865C11.3045 6.89447 12.5158 5.07745 12.5158 2.35193Z" fill="#FFC727" />
  <path fill-rule="evenodd" clip-rule="evenodd" d="M11.3044 13.6274L2.82495 3.63379V8.47916L9.48734 16.0501L11.3044 13.6274Z" fill="#FBFBFB" />
  <path fill-rule="evenodd" clip-rule="evenodd" d="M12.2129 12.719L15.847 8.47931V3.93677L10.0931 10.5992L12.2129 12.719Z" fill="#FBFBFB" />
  <path fill-rule="evenodd" clip-rule="evenodd" d="M12.5157 14.2335V16.959L15.8469 13.0222V10.2966L12.5157 14.2335Z" fill="#FBFBFB" />
  <path fill-rule="evenodd" clip-rule="evenodd" d="M6.15615 14.2335L2.82495 10.2966V13.0222L6.15615 16.959V14.2335Z" fill="#FBFBFB" />
</svg>