<svg xmlns="http://www.w3.org/2000/svg" aria-hidden="true" style="position:absolute;width:0;height:0;overflow:hidden">
  <defs>
    <symbol id="icon-Rectangle-18" viewBox="0 0 32 32">
      <path d="M10.667 31.25 7.68 34.296l3.046 2.987 2.987-3.046-3.046-2.988zm2.987-3.046L2.992 17.748l-5.975 6.092L7.679 34.296l5.975-6.093zM28.013 7.468 7.62 28.263l6.093 5.975 20.393-20.795-6.093-5.975z"/>
    </symbol>
    <symbol id="icon-untitled" viewBox="0 0 32 32">
      <path stroke-width="3.2" d="M16 0v32M0 16h32"/>
    </symbol>
    <symbol id="icon-baseline-date_range-24px-1" viewBox="0 0 32 32">
      <path d="M12 14.667H9.333v2.667H12v-2.667zm5.333 0h-2.667v2.667h2.667v-2.667zm5.334 0H20v2.667h2.667v-2.667zm2.666-9.334H24V2.666h-2.667v2.667H10.666V2.666H7.999v2.667H6.666c-1.48 0-2.653 1.2-2.653 2.667L4 26.667a2.666 2.666 0 0 0 2.667 2.667h18.667c1.467 0 2.667-1.2 2.667-2.667V8c0-1.467-1.2-2.667-2.667-2.667zm0 21.334H6.666V12h18.667v14.667z"/>
    </symbol>
    <symbol id="icon-baseline-email-24px-1" viewBox="0 0 32 32">
      <path d="M26.667 5.333H5.334A2.663 2.663 0 0 0 2.681 8l-.013 16c0 1.467 1.2 2.667 2.667 2.667h21.333c1.467 0 2.667-1.2 2.667-2.667V8c0-1.467-1.2-2.667-2.667-2.667zm0 5.334L16 17.334 5.333 10.667V8L16 14.667 26.667 8v2.667z"/>
    </symbol>
    <symbol id="icon-home" viewBox="0 0 38 38">
      <path d="M6 0C2.68629 0 0 2.68629 0 6V32C0 35.3137 2.68629 38 6 38H32C35.3137 38 38 35.3137 38 32V6C38 2.68629 35.3137 0 32 0H6ZM15.9333 21.3594V29.5555H9.1V18.6274H5L18.6667 6.33325L32.3333 18.6274H28.2333V29.5555H21.4V21.3594H15.9333Z" />
    </symbol>
    <symbol id="icon-media" viewBox="0 0 38 38">
      <path fill-rule="evenodd" clip-rule="evenodd" d="M6 0C2.68629 0 0 2.68629 0 6V32C0 35.3137 2.68629 38 6 38H32C35.3137 38 38 35.3137 38 32V6C38 2.68629 35.3137 0 32 0H6ZM29.5 16.5555C30.7833 16.5555 31.8333 15.4555 31.8333 14.1111C31.8333 12.7666 30.7833 11.6666 29.5 11.6666C28.2166 11.6666 27.1666 12.7666 27.1666 14.1111C27.1666 14.3311 27.19 14.5389 27.2483 14.7344L23.1066 19.0855C22.92 19.0244 22.71 19 22.5 19C22.29 19 22.08 19.0244 21.8933 19.0855L18.9183 15.9689C18.9766 15.7733 19 15.5533 19 15.3333C19 13.9889 17.95 12.8889 16.6666 12.8889C15.3833 12.8889 14.3333 13.9889 14.3333 15.3333C14.3333 15.5533 14.3566 15.7733 14.415 15.9689L9.09498 21.53C8.90831 21.4689 8.70998 21.4444 8.49998 21.4444C7.21664 21.4444 6.16664 22.5444 6.16664 23.8889C6.16664 25.2333 7.21664 26.3333 8.49998 26.3333C9.78331 26.3333 10.8333 25.2333 10.8333 23.8889C10.8333 23.6689 10.81 23.4611 10.7516 23.2655L16.06 17.6922C16.2466 17.7533 16.4566 17.7778 16.6666 17.7778C16.8766 17.7778 17.0866 17.7533 17.2733 17.6922L20.2483 20.8089C20.19 21.0044 20.1666 21.2244 20.1666 21.4444C20.1666 22.7889 21.2166 23.8889 22.5 23.8889C23.7833 23.8889 24.8333 22.7889 24.8333 21.4444C24.8333 21.2244 24.81 21.0044 24.7516 20.8089L28.905 16.47C29.0916 16.5311 29.29 16.5555 29.5 16.5555Z" />
    </symbol>
    <symbol id="icon-chat" viewBox="0 0 38 38">
       <path d="M6 0C2.68629 0 0 2.68629 0 6V32C0 35.3137 2.68629 38 6 38H32C35.3137 38 38 35.3137 38 32V6C38 2.68629 35.3137 0 32 0H6ZM15.7523 15.5989C15.7523 16.7809 16.6607 17.5399 19.4852 18.2741C22.3096 19.0082 25.3332 20.2151 25.3332 23.7489C25.3332 26.2996 23.4046 27.7056 20.9783 28.166V30.8412H17.2455V28.1411C14.8565 27.631 12.8159 26.1005 12.6666 23.3756H15.4039C15.5408 24.8438 16.5487 25.9885 19.1119 25.9885C21.8617 25.9885 22.4714 24.6198 22.4714 23.7613C22.4714 22.6041 21.8493 21.5092 18.7386 20.7626C15.2671 19.9289 12.8905 18.498 12.8905 15.6238C12.8905 13.2223 14.8316 11.6546 17.2455 11.132V8.44434H20.9783V11.1693C23.5788 11.8039 24.8853 13.7698 24.9724 15.91H22.2225C22.1479 14.3546 21.3267 13.297 19.1119 13.297C17.0091 13.297 15.7523 14.2426 15.7523 15.5989Z" />
    </symbol>
    <symbol id="icon-baseline-home-24px-3" viewBox="0 0 32 32">
      <path d="M7.789 4A3.79 3.79 0 0 0 4 7.789V24.21a3.79 3.79 0 0 0 3.789 3.789H24.21a3.79 3.79 0 0 0 3.789-3.789V7.789A3.79 3.79 0 0 0 24.21 4H7.789zm6.274 13.491v5.177H9.747v-6.902H7.158l8.632-7.765 8.632 7.765h-2.589v6.902h-4.316v-5.177h-3.453z"/>
    </symbol>
    <symbol id="icon-baseline-lock-24px-1" viewBox="0 0 32 32">
      <path d="M24 10.667h-1.333V8c0-3.68-2.987-6.667-6.667-6.667S9.333 4.32 9.333 8v2.667H8a2.675 2.675 0 0 0-2.667 2.667v13.333c0 1.467 1.2 2.667 2.667 2.667h16c1.467 0 2.667-1.2 2.667-2.667V13.334c0-1.467-1.2-2.667-2.667-2.667zm-8 12c-1.467 0-2.667-1.2-2.667-2.667s1.2-2.667 2.667-2.667c1.467 0 2.667 1.2 2.667 2.667s-1.2 2.667-2.667 2.667zm4.133-12h-8.267V8c0-2.28 1.853-4.133 4.133-4.133S20.132 5.72 20.132 8v2.667z"/>
    </symbol>
    <symbol id="icon-baseline-timeline-24px-1" viewBox="0 0 32 32">
      <path d="M6.667 4h18.667a2.667 2.667 0 0 1 2.667 2.667v18.667a2.667 2.667 0 0 1-2.667 2.667H6.667A2.667 2.667 0 0 1 4 25.334V6.667A2.667 2.667 0 0 1 6.667 4zm16.969 10.222c.933 0 1.697-.8 1.697-1.778s-.764-1.778-1.697-1.778-1.697.8-1.697 1.778c0 .16.017.311.059.453l-3.012 3.165c-.136-.045-.289-.062-.441-.062s-.305.018-.441.062l-2.164-2.267c.042-.142.059-.302.059-.462 0-.978-.764-1.778-1.697-1.778s-1.697.8-1.697 1.778c0 .16.017.32.059.462l-3.869 4.044a1.396 1.396 0 0 0-.433-.062c-.933 0-1.697.8-1.697 1.778s.764 1.778 1.697 1.778 1.697-.8 1.697-1.778c0-.16-.017-.311-.059-.453l3.861-4.053c.136.044.288.062.441.062s.305-.018.441-.062l2.164 2.267a1.653 1.653 0 0 0-.059.462c0 .978.764 1.778 1.697 1.778s1.697-.8 1.697-1.778c0-.16-.017-.32-.059-.462l3.021-3.156c.136.044.28.062.433.062z"/>
    </symbol>
    <symbol id="icon-baseline-timeline-24px-4" viewBox="0 0 32 32">
      <path d="M7.789 4A3.79 3.79 0 0 0 4 7.789V24.21a3.79 3.79 0 0 0 3.789 3.789H24.21a3.79 3.79 0 0 0 3.789-3.789V7.789A3.79 3.79 0 0 0 24.21 4H7.789zm6.16 9.854c0 .747.574 1.226 2.357 1.69S20 16.77 20 19.002c0 1.611-1.218 2.499-2.751 2.79v1.69h-2.358v-1.705c-1.509-.322-2.798-1.289-2.892-3.01h1.729c.087.927.723 1.65 2.342 1.65 1.737 0 2.122-.864 2.122-1.407 0-.731-.393-1.422-2.358-1.894-2.193-.527-3.694-1.43-3.694-3.246 0-1.517 1.226-2.507 2.75-2.837V9.336h2.358v1.721c1.642.401 2.468 1.642 2.523 2.994h-1.737c-.047-.982-.566-1.65-1.965-1.65-1.328 0-2.122.597-2.122 1.454z"/>
    </symbol>
    <symbol id="icon-close" viewBox="0 0 32 32">
      <path stroke-width="1.778" d="m1.778 1.778 28.444 28.444M1.778 30.222 30.222 1.778"/>
    </symbol>
    <symbol id="icon-drob-down" viewBox="0 0 32 32">
      <path stroke-width="1.6" d="M1.6 8.8 16 23.2 30.4 8.8"/>
    </symbol>
    <symbol id="icon-edit-02" viewBox="0 0 32 32">
      <path stroke-linecap="round" stroke-linejoin="round" stroke-width="2.743" d="m23.999 13.335-5.333-5.333M3.333 28.669l4.512-.502c.551-.061.827-.092 1.085-.175.229-.074.446-.178.647-.311.226-.149.422-.345.814-.738L27.999 9.335a3.77 3.77 0 1 0-5.333-5.333L5.058 21.61c-.392.392-.588.588-.737.814a2.68 2.68 0 0 0-.311.647c-.083.258-.114.533-.175 1.085l-.501 4.512z"/>
    </symbol>
    <symbol id="icon-exit-1" viewBox="0 0 32 32">
      <path d="M20.051 23.237h2.499v4.997a3.752 3.752 0 0 1-3.748 3.748H3.748A3.752 3.752 0 0 1 0 28.234V3.748A3.752 3.752 0 0 1 3.748 0h15.054a3.752 3.752 0 0 1 3.748 3.748v4.997h-2.499V3.748a1.25 1.25 0 0 0-1.249-1.249H3.748a1.25 1.25 0 0 0-1.249 1.249v24.486a1.25 1.25 0 0 0 1.249 1.249h15.054a1.25 1.25 0 0 0 1.249-1.249v-4.997zm6.06-13.135-1.767 1.767 2.873 2.874H11.056v2.499h16.161l-2.873 2.873 1.767 1.767L32 15.993l-5.889-5.89z"/>
    </symbol>
    <symbol id="icon-money-guard-logo-2" viewBox="0 0 32 32">
      <path fill="#ffc727" d="M21.918 4.396c-2.263-.566-4.526-1.698-6.223-3.397-1.697 1.698-3.96 2.83-6.223 3.397.566 5.095 2.263 8.491 6.223 11.322 3.96-2.831 6.223-6.227 6.223-11.322z" style="fill:var(--color1, #ffc727)"/>
      <path fill="#fbfbfb" d="M19.654 25.474 3.814 6.793v9.057L16.26 30.002l3.394-4.529zM21.352 23.775l6.789-7.925V7.359L17.392 19.813l3.96 3.963zM21.918 26.606v5.095l6.223-7.359v-5.095l-6.223 7.359zM10.037 26.606l-6.223-7.359v5.095l6.223 7.359v-5.095z" style="fill:var(--color2, #fbfbfb)"/>
    </symbol>
    <symbol id="icon-user-02" viewBox="0 0 32 32">
      <path d="M16 20c-4.227 0-7.986 2.041-10.379 5.208-.515.682-.773 1.022-.764 1.483.006.356.23.805.51 1.025.362.284.865.284 1.869.284h17.527c1.005 0 1.507 0 1.869-.284.28-.22.503-.669.51-1.025.008-.461-.249-.801-.764-1.483C23.985 22.041 20.226 20 15.999 20zM16 16a6 6 0 1 0 0-12 6 6 0 0 0 0 12z"/>
    </symbol>
    <symbol id="icon-lock" viewBox="0 0 32 32">
<path fill="#fff" style="fill: var(--color1, #fff)" opacity="0.4" d="M24 10.667h-1.333v-2.667c0-3.68-2.987-6.667-6.667-6.667s-6.667 2.987-6.667 6.667v2.667h-1.333c-1.467 0-2.667 1.2-2.667 2.667v13.333c0 1.467 1.2 2.667 2.667 2.667h16c1.467 0 2.667-1.2 2.667-2.667v-13.333c0-1.467-1.2-2.667-2.667-2.667zM16 22.667c-1.467 0-2.667-1.2-2.667-2.667s1.2-2.667 2.667-2.667c1.467 0 2.667 1.2 2.667 2.667s-1.2 2.667-2.667 2.667zM20.133 10.667h-8.267v-2.667c0-2.28 1.853-4.133 4.133-4.133s4.133 1.853 4.133 4.133v2.667z"></path>
</symbol>
<symbol id="icon-email" viewBox="0 0 32 32">
<path fill="#fff" style="fill: var(--color1, #fff)" opacity="0.4" d="M26.667 5.333h-21.333c-1.467 0-2.653 1.2-2.653 2.667l-0.013 16c0 1.467 1.2 2.667 2.667 2.667h21.333c1.467 0 2.667-1.2 2.667-2.667v-16c0-1.467-1.2-2.667-2.667-2.667zM26.667 10.667l-10.667 6.667-10.667-6.667v-2.667l10.667 6.667 10.667-6.667v2.667z"></path>
</symbol>
<symbol id="icon-user" viewBox="0 0 32 32">
<path fill="#fff" style="fill: var(--color1, #fff)" opacity="0.4" d="M16 20c-4.227 0-7.986 2.041-10.379 5.208-0.515 0.682-0.773 1.022-0.764 1.483 0.006 0.356 0.23 0.805 0.51 1.025 0.362 0.284 0.865 0.284 1.869 0.284h17.527c1.004 0 1.507 0 1.869-0.284 0.28-0.22 0.503-0.669 0.51-1.025 0.008-0.461-0.249-0.801-0.764-1.483-2.393-3.167-6.152-5.208-10.379-5.208z"></path>
<path fill="#fff" style="fill: var(--color1, #fff)" opacity="0.4" d="M16 16c3.314 0 6-2.686 6-6s-2.686-6-6-6c-3.314 0-6 2.686-6 6s2.686 6 6 6z"></path>
</symbol>
<symbol id="icon-Money-Guard" viewBox="0 0 32 32">
<path fill="#ffc727" style="fill: var(--color2, #ffc727)" d="M21.94 4.396c-2.263-0.566-4.526-1.698-6.223-3.397-1.697 1.698-3.96 2.83-6.223 3.397 0.566 5.095 2.263 8.491 6.223 11.322 3.96-2.831 6.223-6.227 6.223-11.322z"></path>
<path fill="#fbfbfb" style="fill: var(--color3, #fbfbfb)" d="M19.677 25.474l-15.84-18.681v9.057l12.446 14.152 3.394-4.529z"></path>
<path fill="#fbfbfb" style="fill: var(--color3, #fbfbfb)" d="M21.374 23.776l6.789-7.925v-8.491l-10.749 12.454 3.96 3.963z"></path>
<path fill="#fbfbfb" style="fill: var(--color3, #fbfbfb)" d="M21.94 26.606v5.095l6.223-7.359v-5.095l-6.223 7.359z"></path>
<path fill="#fbfbfb" style="fill: var(--color3, #fbfbfb)" d="M10.060 26.606l-6.223-7.359v5.095l6.223 7.359v-5.095z"></path>
</symbol>
  </defs>
</svg>
