<svg width="338" height="97" viewBox="0 0 338 97" fill="none" xmlns="http://www.w3.org/2000/svg">
<path d="M27.88 38.4724L1 56.2907V89C1 93.4183 4.58173 97 9.00001 97H329C333.418 97 337 93.4183 337 89V24.4195C335.776 23.9343 333.993 23.7722 333.237 23.7342C327.345 23.4385 323.966 26.2595 319.259 28.8741L319.201 28.9066C317.81 29.6801 314.33 31.6154 307.97 31.6154C301.518 31.6154 297.038 29.7879 295.605 28.8741L274.101 14.4823C271.234 12.6548 264.962 8.99976 257.973 8.99976C250.984 8.99976 245.429 12.6548 242.92 14.4823L143.464 75.8224C141.851 76.9646 136.905 79.249 130.024 79.249C123.143 79.249 118.197 76.9646 116.584 75.8224L59.0608 36.759C57.0896 35.3884 51.3194 32.6471 44.008 32.6471C36.6966 32.6471 30.2096 36.5306 27.88 38.4724Z" fill="url(#paint0_linear_12912_183)" fill-opacity="0.6"/>
<path d="M27.88 38.4724L1 56.2907V89C1 93.4183 4.58173 97 9.00001 97H329C333.418 97 337 93.4183 337 89V24.4195C335.776 23.9343 333.993 23.7722 333.237 23.7342C327.345 23.4385 323.966 26.2595 319.259 28.8741L319.201 28.9066C317.81 29.6801 314.33 31.6154 307.97 31.6154C301.518 31.6154 297.038 29.7879 295.605 28.8741L274.101 14.4823C271.234 12.6548 264.962 8.99976 257.973 8.99976C250.984 8.99976 245.429 12.6548 242.92 14.4823L143.464 75.8224C141.851 76.9646 136.905 79.249 130.024 79.249C123.143 79.249 118.197 76.9646 116.584 75.8224L59.0608 36.759C57.0896 35.3884 51.3194 32.6471 44.008 32.6471C36.6966 32.6471 30.2096 36.5306 27.88 38.4724Z" fill="#390096" fill-opacity="0.2"/>
<circle cx="258.8" cy="3.5" r="2.65" fill="#563EAF" stroke="#FF868D" stroke-width="0.7"/>
<circle cx="44.5999" cy="27.2998" r="2.65" fill="#563EAF" stroke="#FF868D" stroke-width="0.7"/>
<path d="M1 50.291L27.88 32.4726C30.2096 30.5309 36.6966 26.6474 44.008 26.6474C51.3194 26.6474 57.0896 29.3886 59.0608 30.7593L116.584 69.8227C118.197 70.9649 123.143 73.2493 130.024 73.2493C136.905 73.2493 141.851 70.9649 143.464 69.8227L242.92 8.48258C245.429 6.65505 250.984 3 257.973 3C264.962 3 271.234 6.65505 274.101 8.48258L295.605 22.8744C297.038 23.7881 301.518 25.6156 307.97 25.6156C314.421 25.6156 317.909 23.6246 319.259 22.8744C323.966 20.2597 327.345 17.4387 333.237 17.7344C333.993 17.7724 335.776 17.9345 337 18.4198" stroke="#FF868D"/>
<defs>
<linearGradient id="paint0_linear_12912_183" x1="169" y1="21.9498" x2="169" y2="111.2" gradientUnits="userSpaceOnUse">
<stop stop-color="white"/>
<stop offset="0.374892" stop-color="white" stop-opacity="0.536458"/>
<stop offset="0.6091" stop-color="white" stop-opacity="0.269957"/>
<stop offset="0.766012" stop-color="white" stop-opacity="0.151176"/>
<stop offset="1" stop-color="white" stop-opacity="0"/>
</linearGradient>
</defs>
</svg>
