<svg width="320" height="97" viewBox="0 0 320 97" fill="none" xmlns="http://www.w3.org/2000/svg">
<path d="M25.6 38.4725L0 56.2908V89C0 93.4183 3.58171 97 7.99999 97H312C316.418 97 320 93.4183 320 89V24.4197C318.834 23.9345 317.137 23.7724 316.416 23.7344C310.805 23.4387 307.586 26.2597 303.104 28.8743L303.048 28.9068C301.724 29.6803 298.409 31.6156 292.352 31.6156C286.208 31.6156 281.941 29.7881 280.576 28.8743L260.096 14.4826C257.365 12.655 251.392 9 244.736 9C238.08 9 232.789 12.655 230.4 14.4826L135.68 75.8225C134.144 76.9647 129.434 79.2491 122.88 79.2491C116.326 79.2491 111.616 76.9647 110.08 75.8225L55.296 36.7592C53.4187 35.3886 47.9232 32.6473 40.96 32.6473C33.9968 32.6473 27.8187 36.5308 25.6 38.4725Z" fill="url(#paint0_linear_12916_152)" fill-opacity="0.6"/>
<path d="M25.6 38.4725L0 56.2908V89C0 93.4183 3.58171 97 7.99999 97H312C316.418 97 320 93.4183 320 89V24.4197C318.834 23.9345 317.137 23.7724 316.416 23.7344C310.805 23.4387 307.586 26.2597 303.104 28.8743L303.048 28.9068C301.724 29.6803 298.409 31.6156 292.352 31.6156C286.208 31.6156 281.941 29.7881 280.576 28.8743L260.096 14.4826C257.365 12.655 251.392 9 244.736 9C238.08 9 232.789 12.655 230.4 14.4826L135.68 75.8225C134.144 76.9647 129.434 79.2491 122.88 79.2491C116.326 79.2491 111.616 76.9647 110.08 75.8225L55.296 36.7592C53.4187 35.3886 47.9232 32.6473 40.96 32.6473C33.9968 32.6473 27.8187 36.5308 25.6 38.4725Z" fill="#390096" fill-opacity="0.2"/>
<path d="M0 50.1232L25.6 32.368C27.8187 30.4332 33.9968 26.5634 40.96 26.5634C47.9232 26.5634 53.4187 29.295 55.296 30.6608L110.08 69.5855C111.616 70.7237 116.326 73 122.88 73C129.434 73 134.144 70.7237 135.68 69.5855L230.4 8.46313C232.789 6.64208 238.08 3 244.736 3C251.392 3 257.365 6.64208 260.096 8.46313L280.576 22.8038C281.941 23.7144 286.208 25.5354 292.352 25.5354C298.496 25.5354 301.818 23.5514 303.104 22.8038C307.586 20.1985 310.805 17.3875 316.416 17.6821C317.137 17.72 318.834 17.8815 320 18.365" stroke="#FF868D"/>
<circle cx="245" cy="3" r="2.65" fill="#563EAF" stroke="#FF868D" stroke-width="0.7"/>
<circle cx="42" cy="26" r="2.65" fill="#563EAF" stroke="#FF868D" stroke-width="0.7"/>
<defs>
<linearGradient id="paint0_linear_12916_152" x1="160" y1="21.95" x2="160" y2="111.2" gradientUnits="userSpaceOnUse">
<stop stop-color="white"/>
<stop offset="0.374892" stop-color="white" stop-opacity="0.536458"/>
<stop offset="0.6091" stop-color="white" stop-opacity="0.269957"/>
<stop offset="0.766012" stop-color="white" stop-opacity="0.151176"/>
<stop offset="1" stop-color="white" stop-opacity="0"/>
</linearGradient>
</defs>
</svg>
